<svg xmlns="http://www.w3.org/2000/svg" width="199" height="199" viewBox="0 0 199 199"><g transform="translate(0 38.5)"><path d="M 97.794 7.287 C 91.448 17.168, 86.368 22.467, 81.391 24.395 C 75.220 26.787, 59.071 34.680, 57.035 36.300 C 51.274 40.885, 49.479 41.220, 36.828 40.065 C 30.185 39.459, 24.446 38.776, 24.077 38.547 C 23.707 38.319, 22.836 38.483, 22.142 38.912 C 21.011 39.611, 26.907 45.556, 33.549 50.412 C 35.038 51.501, 34.924 51.943, 32.353 55.058 C 30.791 56.951, 29.025 58.950, 28.429 59.500 C 26.548 61.237, 21 68.754, 21 69.565 C 21 69.993, 20.398 71.053, 19.661 71.921 C 18.925 72.790, 17.546 76.045, 16.598 79.155 C 14.558 85.844, 15.139 90.453, 18.681 95.671 L 21.126 99.275 17.827 102.887 C 16.013 104.874, 12.073 109.076, 9.072 112.224 C 6.070 115.372, 3.905 118.238, 4.260 118.594 C 4.870 119.204, 15.642 114.035, 22.407 109.888 C 29.454 105.567, 31.108 105.201, 38.760 106.270 C 52.564 108.199, 73.896 104.603, 90.218 97.596 C 92.263 96.718, 94.407 96, 94.982 96 C 95.558 96, 98.609 98.806, 101.764 102.235 C 117.292 119.113, 117.755 119.348, 113.942 108.405 C 112.810 105.157, 111.506 101.150, 111.043 99.500 C 110.580 97.850, 109.645 94.989, 108.965 93.143 C 108.201 91.066, 108.093 89.540, 108.682 89.143 C 109.207 88.789, 112.980 86.259, 117.068 83.519 C 132.200 73.379, 143.913 61.510, 149.714 50.440 C 153.678 42.875, 154.241 42.270, 159.214 40.246 C 162.121 39.062, 165.742 37.798, 167.259 37.436 C 168.777 37.074, 170.266 36.378, 170.568 35.889 C 170.871 35.400, 171.879 34.997, 172.809 34.994 C 173.739 34.990, 175.707 34.358, 177.183 33.588 C 178.658 32.818, 181.246 31.885, 182.933 31.515 C 184.620 31.144, 186 30.383, 186 29.824 C 186 28.023, 176.412 29.603, 160.273 34.063 C 155.240 35.454, 153 34.814, 153 31.984 C 153 28.640, 144.248 20.772, 138 18.500 C 133.438 16.841, 130 16.500, 117.837 16.500 C 109.772 16.500, 102.945 16.273, 102.667 15.997 C 102.388 15.720, 102.491 12.682, 102.896 9.247 C 103.524 3.922, 103.402 3.005, 102.066 3.037 C 101.205 3.057, 99.282 4.969, 97.794 7.287 M 106 22.817 L 102.500 23.500 101.863 33.259 C 101.241 42.796, 101.129 43.149, 96.933 48.759 C 94.572 51.917, 92.046 54.860, 91.320 55.300 C 90.594 55.740, 90 56.546, 90 57.092 C 90 58.176, 88.477 60.219, 85.750 62.793 C 84.787 63.701, 84 65.019, 84 65.722 C 84 66.425, 83.662 67.003, 83.250 67.006 C 82.838 67.009, 79.602 70.893, 76.061 75.636 C 72.296 80.679, 68.351 84.841, 66.561 85.660 C 64.877 86.429, 61.925 88.006, 60 89.163 C 58.075 90.320, 54.025 92.595, 51 94.219 C 43.765 98.102, 39.015 101.306, 39.007 102.311 C 38.998 103.387, 60.024 102.530, 67 101.169 C 72.077 100.179, 78.618 98.168, 83.500 96.097 C 84.600 95.631, 86.737 94.753, 88.250 94.146 C 89.763 93.539, 90.996 92.471, 90.992 91.771 C 90.988 91.072, 88.294 87.645, 85.007 84.156 C 78.178 76.908, 78.138 77.658, 85.878 67.500 C 88.392 64.200, 90.788 61.050, 91.201 60.500 C 95.748 54.452, 101.776 50, 105.416 50 C 106.250 50, 108.410 49.372, 110.216 48.604 C 113.291 47.298, 128.097 42.713, 137.803 40.063 C 140.169 39.417, 142.359 38.227, 142.669 37.419 C 143.624 34.932, 138.557 28.621, 133.316 25.769 C 129.203 23.530, 126.727 22.985, 118.924 22.599 C 113.741 22.343, 107.925 22.441, 106 22.817 M 76 30.539 C 74.625 31.285, 69.996 33.556, 65.713 35.585 C 61.429 37.615, 58.091 39.776, 58.294 40.388 C 58.819 41.969, 69.057 43.167, 71.500 41.933 C 73.909 40.716, 81.197 30.530, 80.300 29.633 C 79.478 28.811, 79 28.911, 76 30.539 M 137.728 48.606 C 137.394 48.939, 130.682 52.023, 122.811 55.458 C 101.810 64.625, 100.994 65.074, 101.044 67.435 C 101.068 68.571, 101.770 71.300, 102.604 73.500 C 103.439 75.700, 104.571 78.984, 105.121 80.798 C 105.959 83.564, 106.474 83.992, 108.310 83.448 C 117.653 80.682, 141 56.414, 141 49.469 C 141 48.008, 138.884 47.450, 137.728 48.606 M 35.983 55.750 C 35.974 56.163, 34.061 58.569, 31.733 61.099 C 26.850 66.403, 25.783 67.946, 23.018 73.695 C 20.440 79.055, 20.169 91.026, 22.571 93.429 C 23.436 94.293, 24.421 95, 24.762 95 C 25.383 95, 29.310 90.903, 44.138 74.783 L 52.157 66.066 49.761 63.783 C 44.218 58.502, 39.440 55, 37.777 55 C 36.800 55, 35.992 55.337, 35.983 55.750" stroke="none" fill="#00a3cc" fill-rule="evenodd"/></g></svg>